<?xml version="1.0" encoding="utf-8"?>
<!-- Generator: Adobe Illustrator 20.0.0, SVG Export Plug-In . SVG Version: 6.00 Build 0)  -->
<svg version="1.1" xmlns="http://www.w3.org/2000/svg" xmlns:xlink="http://www.w3.org/1999/xlink" x="0px" y="0px"
	 viewBox="0 0 66.8 66.8" style="enable-background:new 0 0 66.8 66.8;" xml:space="preserve">
<style type="text/css">
	.st0{fill:none;}
	.st1{fill:#37C1D5;}
	.st2{fill:#21BBD1;}
	.st3{fill:url(#SVGID_1_);}
	.st4{fill:none;stroke:#20222D;stroke-miterlimit:10;}
	.st5{fill:#020000;}
	.st6{fill:#FFFFFF;}
	.st7{stroke:#000000;stroke-width:0.75;stroke-miterlimit:10;}
	.st8{fill:none;stroke:#000000;stroke-width:0.75;stroke-miterlimit:10;}
</style>
<pattern  y="66.8" width="6.7" height="117.7" patternUnits="userSpaceOnUse" id="New_Pattern_Swatch_3" viewBox="0 -117.7 6.7 117.7" style="overflow:visible;">
	<g>
		<rect y="-117.7" class="st0" width="6.7" height="117.7"/>
		<rect y="-117.7" class="st0" width="6.7" height="117.7"/>
		<rect y="-117.7" class="st1" width="3.3" height="117.7"/>
		<rect x="3.3" y="-117.7" class="st2" width="3.3" height="117.7"/>
	</g>
</pattern>
<g id="Layer_1">
	<title>parsehub_icon_three_v2</title>
	
		<pattern  id="SVGID_1_" xlink:href="#New_Pattern_Swatch_3" patternTransform="matrix(0.5441 0.839 0.839 -0.5441 2804.2031 -6851.2852)">
	</pattern>
	<circle class="st3" cx="33.4" cy="33.4" r="33.4"/>
	<path class="st4" d="M53,40"/>
	<path class="st5" d="M51.9,50.1h-37c-0.8,0-1.5-0.7-1.5-1.5v0c0-0.8,0.7-1.5,1.5-1.5h37c0.8,0,1.5,0.7,1.5,1.5v0
		C53.4,49.4,52.7,50.1,51.9,50.1z"/>
	<path class="st6" d="M18.4,19.6L18.4,19.6c-1.1,0-2,0.9-2,2v21.9c0,1.1,0.9,2,2,2h0c1.1,0,2-0.9,2-2V21.6
		C20.4,20.5,19.5,19.6,18.4,19.6z"/>
	<path class="st6" d="M25.9,24.1L25.9,24.1c-1.1,0-2,0.9-2,2v17.4c0,1.1,0.9,2,2,2h0c1.1,0,2-0.9,2-2V26.1
		C27.9,25,27,24.1,25.9,24.1z"/>
	<path class="st6" d="M33.4,15.2L33.4,15.2c-1.1,0-2,0.9-2,2v26.3c0,1.1,0.9,2,2,2h0c1.1,0,2-0.9,2-2V17.2
		C35.4,16.1,34.5,15.2,33.4,15.2z"/>
	<path class="st6" d="M40.9,17.5L40.9,17.5c-1.1,0-2,0.9-2,2v24c0,1.1,0.9,2,2,2h0c1.1,0,2-0.9,2-2v-24C42.9,18.4,42,17.5,40.9,17.5
		z"/>
	<path class="st6" d="M48.4,22.1L48.4,22.1c-1.1,0-2,0.9-2,2v19.4c0,1.1,0.9,2,2,2h0c1.1,0,2-0.9,2-2V24.1
		C50.4,23,49.5,22.1,48.4,22.1z"/>
</g>
<g id="Layer_2">
	<path class="st5" d="M18.6,26.8h-0.5c-0.3,0-0.5-0.2-0.5-0.5v-0.5c0-0.3,0.2-0.5,0.5-0.5h0.5c0.3,0,0.5,0.2,0.5,0.5v0.5
		C19.1,26.6,18.9,26.8,18.6,26.8z"/>
	<path class="st5" d="M26.1,36.7h-0.5c-0.3,0-0.5-0.2-0.5-0.5v-0.5c0-0.3,0.2-0.5,0.5-0.5h0.5c0.3,0,0.5,0.2,0.5,0.5v0.5
		C26.6,36.5,26.4,36.7,26.1,36.7z"/>
	<path class="st5" d="M33.6,29.3h-0.5c-0.3,0-0.5-0.2-0.5-0.5v-0.5c0-0.3,0.2-0.5,0.5-0.5h0.5c0.3,0,0.5,0.2,0.5,0.5v0.5
		C34.1,29.1,33.9,29.3,33.6,29.3z"/>
	<path class="st5" d="M40.9,31.3h-0.5c-0.3,0-0.5-0.2-0.5-0.5v-0.5c0-0.3,0.2-0.5,0.5-0.5h0.5c0.3,0,0.5,0.2,0.5,0.5v0.5
		C41.4,31.1,41.2,31.3,40.9,31.3z"/>
	<path class="st5" d="M48.6,17.6h-0.5c-0.3,0-0.5-0.2-0.5-0.5v-0.5c0-0.3,0.2-0.5,0.5-0.5h0.5c0.3,0,0.5,0.2,0.5,0.5v0.5
		C49.1,17.3,48.9,17.6,48.6,17.6z"/>
	<line class="st7" x1="18.4" y1="26" x2="25.9" y2="36"/>
	<line class="st8" x1="33.4" y1="28.6" x2="25.9" y2="36"/>
	<line class="st8" x1="40.7" y1="30.6" x2="33.4" y2="28.6"/>
	<line class="st8" x1="48.4" y1="16.8" x2="40.7" y2="30.6"/>
</g>
</svg>
